<svg width="1280" height="640" viewBox="0 0 1280 640" fill="none" xmlns="http://www.w3.org/2000/svg">
  <defs>
    <linearGradient id="bg" x1="0" y1="0" x2="1280" y2="640" gradientUnits="userSpaceOnUse">
      <stop stop-color="#0B1020"/>
      <stop offset="0.5" stop-color="#111827"/>
      <stop offset="1" stop-color="#1E1B4B"/>
    </linearGradient>
    <linearGradient id="accent" x1="220" y1="120" x2="960" y2="520" gradientUnits="userSpaceOnUse">
      <stop stop-color="#60A5FA"/>
      <stop offset="0.5" stop-color="#A78BFA"/>
      <stop offset="1" stop-color="#22D3EE"/>
    </linearGradient>
    <filter id="blur" x="0" y="0" width="1280" height="640" filterUnits="userSpaceOnUse" color-interpolation-filters="sRGB">
      <feGaussianBlur stdDeviation="40"/>
    </filter>
  </defs>

  <rect width="1280" height="640" rx="32" fill="url(#bg)"/>

  <g filter="url(#blur)" opacity="0.45">
    <circle cx="245" cy="164" r="120" fill="#2563EB"/>
    <circle cx="980" cy="120" r="140" fill="#7C3AED"/>
    <circle cx="1080" cy="470" r="150" fill="#0891B2"/>
  </g>

  <rect x="72" y="82" width="1136" height="476" rx="28" fill="white" fill-opacity="0.03" stroke="white" stroke-opacity="0.09"/>

  <g opacity="0.9">
    <rect x="104" y="112" width="168" height="36" rx="18" fill="#111827" stroke="#374151"/>
    <text x="126" y="135" fill="#93C5FD" font-family="Inter, Arial, sans-serif" font-size="16" font-weight="700">POCKETCLAW</text>
    <circle cx="244" cy="130" r="6" fill="#22C55E"/>
  </g>

  <text x="104" y="240" fill="white" font-family="Inter, Arial, sans-serif" font-size="72" font-weight="800">PocketClaw</text>
  <text x="104" y="290" fill="#C7D2FE" font-family="Inter, Arial, sans-serif" font-size="30" font-weight="600">Connect to your OpenClaw lobster 🦞 from your phone.</text>
  <text x="104" y="338" fill="#CBD5E1" font-family="Inter, Arial, sans-serif" font-size="24">A mobile-first, Flutter-built OpenClaw client.</text>
  <text x="104" y="374" fill="#CBD5E1" font-family="Inter, Arial, sans-serif" font-size="24">Pure frontend. No extra backend. Compatible with today’s Gateway.</text>

  <g>
    <rect x="104" y="420" width="168" height="44" rx="22" fill="#111827" stroke="#334155"/>
    <text x="130" y="448" fill="#E2E8F0" font-family="Inter, Arial, sans-serif" font-size="18" font-weight="700">Flutter</text>

    <rect x="286" y="420" width="206" height="44" rx="22" fill="#111827" stroke="#334155"/>
    <text x="312" y="448" fill="#E2E8F0" font-family="Inter, Arial, sans-serif" font-size="18" font-weight="700">OpenClaw Gateway</text>

    <rect x="506" y="420" width="188" height="44" rx="22" fill="#111827" stroke="#334155"/>
    <text x="532" y="448" fill="#E2E8F0" font-family="Inter, Arial, sans-serif" font-size="18" font-weight="700">Pure Frontend</text>
  </g>

  <g>
    <rect x="844" y="136" width="268" height="360" rx="32" fill="#0F172A" stroke="url(#accent)" stroke-width="2"/>
    <rect x="865" y="168" width="226" height="26" rx="13" fill="#111827"/>
    <circle cx="889" cy="181" r="6" fill="#22C55E"/>
    <rect x="906" y="176" width="102" height="10" rx="5" fill="#334155"/>

    <rect x="865" y="220" width="154" height="56" rx="18" fill="#1E293B"/>
    <rect x="877" y="236" width="90" height="8" rx="4" fill="#94A3B8"/>
    <rect x="877" y="252" width="122" height="8" rx="4" fill="#475569"/>

    <rect x="937" y="296" width="154" height="74" rx="20" fill="url(#accent)" fill-opacity="0.22" stroke="#60A5FA"/>
    <rect x="953" y="317" width="92" height="10" rx="5" fill="#E0E7FF"/>
    <rect x="953" y="336" width="118" height="10" rx="5" fill="#BFDBFE"/>

    <rect x="865" y="392" width="226" height="62" rx="18" fill="#111827" stroke="#334155"/>
    <rect x="881" y="412" width="84" height="10" rx="5" fill="#94A3B8"/>
    <rect x="881" y="430" width="146" height="10" rx="5" fill="#475569"/>
  </g>
</svg>
