<svg width="512" height="512" viewBox="0 0 512 512" xmlns="http://www.w3.org/2000/svg" role="img" aria-labelledby="title desc">
  <title id="title">PocketClaw logo</title>
  <desc id="desc">PocketClaw logo with a stylized claw inside a rounded mobile-inspired frame.</desc>
  <defs>
    <linearGradient id="bg" x1="96" y1="64" x2="416" y2="448" gradientUnits="userSpaceOnUse">
      <stop offset="0" stop-color="#0F172A"/>
      <stop offset="1" stop-color="#111827"/>
    </linearGradient>
    <linearGradient id="stroke" x1="118" y1="92" x2="394" y2="420" gradientUnits="userSpaceOnUse">
      <stop offset="0" stop-color="#60A5FA"/>
      <stop offset="0.5" stop-color="#A78BFA"/>
      <stop offset="1" stop-color="#22D3EE"/>
    </linearGradient>
    <linearGradient id="claw" x1="164" y1="150" x2="348" y2="360" gradientUnits="userSpaceOnUse">
      <stop offset="0" stop-color="#BFDBFE"/>
      <stop offset="0.55" stop-color="#C4B5FD"/>
      <stop offset="1" stop-color="#67E8F9"/>
    </linearGradient>
    <filter id="glow" x="0" y="0" width="512" height="512" filterUnits="userSpaceOnUse">
      <feGaussianBlur stdDeviation="28"/>
    </filter>
  </defs>

  <rect width="512" height="512" rx="112" fill="#060B16"/>

  <g filter="url(#glow)" opacity="0.22">
    <circle cx="146" cy="126" r="72" fill="#2563EB"/>
    <circle cx="380" cy="126" r="78" fill="#7C3AED"/>
    <circle cx="364" cy="382" r="84" fill="#0891B2"/>
  </g>

  <rect x="90" y="74" width="332" height="364" rx="84" fill="url(#bg)" stroke="url(#stroke)" stroke-width="10"/>
  <rect x="110" y="96" width="292" height="320" rx="64" fill="#0B1220"/>
  <rect x="206" y="86" width="100" height="10" rx="5" fill="#334155"/>

  <g fill="none" stroke="url(#claw)" stroke-linecap="round" stroke-linejoin="round">
    <path d="M256 218V154" stroke-width="22"/>
    <path d="M218 208L184 166" stroke-width="22"/>
    <path d="M294 208L328 166" stroke-width="22"/>
    <path d="M200 256C200 228 224 206 256 206C288 206 312 228 312 256" stroke-width="24"/>
    <path d="M199 270C177 270 158 287 158 310C158 333 177 350 199 350" stroke-width="22"/>
    <path d="M313 270C335 270 354 287 354 310C354 333 335 350 313 350" stroke-width="22"/>
  </g>

  <g fill="none" stroke="url(#claw)" stroke-width="22" stroke-linecap="round" stroke-linejoin="round">
    <path d="M175 286L135 244"/>
    <path d="M175 286L141 322"/>
    <path d="M337 286L377 244"/>
    <path d="M337 286L371 322"/>
  </g>

  <circle cx="256" cy="312" r="16" fill="url(#claw)"/>
</svg>
