<svg width="512" height="512" viewBox="0 0 512 512" xmlns="http://www.w3.org/2000/svg" role="img" aria-labelledby="title desc">
  <title id="title">PocketClaw logo</title>
  <desc id="desc">PocketClaw logo with a stylized claw inside a rounded mobile-inspired frame.</desc>
  <defs>
    <linearGradient id="bg" x1="96" y1="64" x2="416" y2="448" gradientUnits="userSpaceOnUse">
      <stop offset="0" stop-color="#0F172A"/>
      <stop offset="1" stop-color="#111827"/>
    </linearGradient>
    <linearGradient id="stroke" x1="118" y1="92" x2="394" y2="420" gradientUnits="userSpaceOnUse">
      <stop offset="0" stop-color="#60A5FA"/>
      <stop offset="0.5" stop-color="#A78BFA"/>
      <stop offset="1" stop-color="#22D3EE"/>
    </linearGradient>
    <linearGradient id="claw" x1="180" y1="164" x2="340" y2="352" gradientUnits="userSpaceOnUse">
      <stop offset="0" stop-color="#BFDBFE"/>
      <stop offset="0.55" stop-color="#C4B5FD"/>
      <stop offset="1" stop-color="#67E8F9"/>
    </linearGradient>
    <filter id="glow" x="0" y="0" width="512" height="512" filterUnits="userSpaceOnUse">
      <feGaussianBlur stdDeviation="28"/>
    </filter>
  </defs>

  <rect width="512" height="512" rx="112" fill="#060B16"/>

  <g filter="url(#glow)" opacity="0.22">
    <circle cx="146" cy="126" r="72" fill="#2563EB"/>
    <circle cx="380" cy="126" r="78" fill="#7C3AED"/>
    <circle cx="364" cy="382" r="84" fill="#0891B2"/>
  </g>

  <rect x="90" y="74" width="332" height="364" rx="84" fill="url(#bg)" stroke="url(#stroke)" stroke-width="10"/>
  <rect x="110" y="96" width="292" height="320" rx="64" fill="#0B1220"/>
  <rect x="206" y="86" width="100" height="10" rx="5" fill="#334155"/>

  <g fill="none" stroke="url(#claw)" stroke-linecap="round" stroke-linejoin="round">
    <path d="M175 314C175 267 207 232 250 232C281 232 307 248 321 273" stroke-width="24"/>
    <path d="M210 205L176 166" stroke-width="22"/>
    <path d="M255 188V142" stroke-width="22"/>
    <path d="M300 205L336 166" stroke-width="22"/>
    <path d="M313 277C334 277 351 294 351 315C351 336 334 353 313 353" stroke-width="22"/>
    <path d="M191 277C170 277 153 294 153 315C153 336 170 353 191 353" stroke-width="22"/>
  </g>

  <circle cx="256" cy="318" r="16" fill="url(#claw)"/>
</svg>
